# xmcd
# 
# Track frame offsets:
#     150
#     26515
#     47100
#     80627
#     101555
#     132552
#     161530
# 
# Disc length: 2730
# 
# Revision: 3
# Processed by: cddbd v1.5.2PL0 Copyright (c) Steve Scherf et al.
# Submitted via: BonkEnc v1.0.15
# 
DISCID=570aa807
DTITLE=Cacophony - Speed Metal Symphony (APCY-2014)
DYEAR=1987
DGENRE=Metal
TTITLE0=Savage
TTITLE1=Where My Fortune Lies
TTITLE2=The Ninja
TTITLE3=Concerto
TTITLE4=Burn The Ground
TTITLE5=Desert Island
TTITLE6=Speed Metal Symphony
EXTD=YEAR: 1987
EXTT0=
EXTT1=
EXTT2=
EXTT3=
EXTT4=
EXTT5=
EXTT6=
PLAYORDER=
